<svg width="201" height="201" viewBox="0 0 201 201" fill="none" xmlns="http://www.w3.org/2000/svg">
<rect x="0.902344" y="0.219482" width="200" height="200" rx="40" fill="black"/>
<path d="M107.024 139.716H105.056C102.208 139.716 99.6 139.492 97.232 139.044C94.864 138.596 92.864 138.02 91.232 137.316C89.632 136.58 88.208 135.7 86.96 134.676C85.712 133.652 84.736 132.612 84.032 131.556C83.328 130.5 82.736 129.364 82.256 128.148C81.808 126.932 81.504 125.828 81.344 124.836C81.216 123.844 81.152 122.836 81.152 121.812V120.42C81.152 118.916 81.296 117.476 81.584 116.1C81.872 114.692 82.512 113.14 83.504 111.444C84.528 109.748 85.856 108.292 87.488 107.076C89.152 105.86 91.488 104.836 94.496 104.004C97.536 103.172 101.056 102.756 105.056 102.756H107.024C110.32 102.756 113.296 103.012 115.952 103.524C118.608 104.004 120.768 104.66 122.432 105.492C124.096 106.324 125.52 107.236 126.704 108.228C127.888 109.188 128.768 110.228 129.344 111.348C129.92 112.468 130.32 113.46 130.544 114.324C130.8 115.188 130.928 116.02 130.928 116.82V117.348H119.072C118.944 116.964 118.816 116.628 118.688 116.34C118.56 116.02 118.192 115.524 117.584 114.852C117.008 114.18 116.288 113.62 115.424 113.172C114.592 112.724 113.344 112.324 111.68 111.972C110.048 111.588 108.16 111.396 106.016 111.396C103.456 111.396 101.264 111.668 99.44 112.212C97.648 112.724 96.288 113.444 95.36 114.372C94.464 115.3 93.824 116.276 93.44 117.3C93.056 118.324 92.864 119.444 92.864 120.66V121.236C92.864 122.388 93.072 123.492 93.488 124.548C93.936 125.604 94.624 126.644 95.552 127.668C96.48 128.692 97.856 129.508 99.68 130.116C101.504 130.724 103.648 131.028 106.112 131.028C113.536 131.028 117.872 128.916 119.12 124.692H130.976V125.22C130.976 126.084 130.848 126.98 130.592 127.908C130.336 128.804 129.904 129.828 129.296 130.98C128.72 132.132 127.824 133.204 126.608 134.196C125.424 135.188 124 136.116 122.336 136.98C120.672 137.812 118.512 138.484 115.856 138.996C113.232 139.476 110.288 139.716 107.024 139.716ZM159.008 139.716H157.04C154.192 139.716 151.584 139.492 149.216 139.044C146.848 138.596 144.848 138.02 143.216 137.316C141.616 136.58 140.192 135.7 138.944 134.676C137.696 133.652 136.72 132.612 136.016 131.556C135.312 130.5 134.72 129.364 134.24 128.148C133.792 126.932 133.488 125.828 133.328 124.836C133.2 123.844 133.136 122.836 133.136 121.812V120.42C133.136 118.916 133.28 117.476 133.568 116.1C133.856 114.692 134.496 113.14 135.488 111.444C136.512 109.748 137.84 108.292 139.472 107.076C141.136 105.86 143.472 104.836 146.48 104.004C149.52 103.172 153.04 102.756 157.04 102.756H159.008C162.304 102.756 165.28 103.012 167.936 103.524C170.592 104.004 172.752 104.66 174.416 105.492C176.08 106.324 177.504 107.236 178.688 108.228C179.872 109.188 180.752 110.228 181.328 111.348C181.904 112.468 182.304 113.46 182.528 114.324C182.784 115.188 182.912 116.02 182.912 116.82V117.348H171.056C170.928 116.964 170.8 116.628 170.672 116.34C170.544 116.02 170.176 115.524 169.568 114.852C168.992 114.18 168.272 113.62 167.408 113.172C166.576 112.724 165.328 112.324 163.664 111.972C162.032 111.588 160.144 111.396 158 111.396C155.44 111.396 153.248 111.668 151.424 112.212C149.632 112.724 148.272 113.444 147.344 114.372C146.448 115.3 145.808 116.276 145.424 117.3C145.04 118.324 144.848 119.444 144.848 120.66V121.236C144.848 122.388 145.056 123.492 145.472 124.548C145.92 125.604 146.608 126.644 147.536 127.668C148.464 128.692 149.84 129.508 151.664 130.116C153.488 130.724 155.632 131.028 158.096 131.028C165.52 131.028 169.856 128.916 171.104 124.692H182.96V125.22C182.96 126.084 182.832 126.98 182.576 127.908C182.32 128.804 181.888 129.828 181.28 130.98C180.704 132.132 179.808 133.204 178.592 134.196C177.408 135.188 175.984 136.116 174.32 136.98C172.656 137.812 170.496 138.484 167.84 138.996C165.216 139.476 162.272 139.716 159.008 139.716Z" fill="white"/>
<path d="M110.231 183.716H108.263C105.415 183.716 102.807 183.492 100.439 183.044C98.0705 182.596 96.0705 182.02 94.4385 181.316C92.8385 180.58 91.4145 179.7 90.1665 178.676C88.9185 177.652 87.9425 176.612 87.2385 175.556C86.5345 174.5 85.9425 173.364 85.4625 172.148C85.0145 170.932 84.7105 169.828 84.5505 168.836C84.4225 167.844 84.3585 166.836 84.3585 165.812V164.42C84.3585 162.916 84.5025 161.476 84.7905 160.1C85.0785 158.692 85.7185 157.14 86.7105 155.444C87.7345 153.748 89.0625 152.292 90.6945 151.076C92.3585 149.86 94.6945 148.836 97.7025 148.004C100.743 147.172 104.263 146.756 108.263 146.756H110.231C113.527 146.756 116.503 147.012 119.159 147.524C121.815 148.004 123.975 148.66 125.639 149.492C127.303 150.324 128.727 151.236 129.911 152.228C131.095 153.188 131.975 154.228 132.551 155.348C133.127 156.468 133.527 157.46 133.751 158.324C134.007 159.188 134.135 160.02 134.135 160.82V161.348H122.279C122.151 160.964 122.023 160.628 121.895 160.34C121.767 160.02 121.399 159.524 120.791 158.852C120.215 158.18 119.495 157.62 118.631 157.172C117.799 156.724 116.551 156.324 114.887 155.972C113.255 155.588 111.367 155.396 109.223 155.396C106.663 155.396 104.471 155.668 102.647 156.212C100.855 156.724 99.4945 157.444 98.5665 158.372C97.6705 159.3 97.0305 160.276 96.6465 161.3C96.2625 162.324 96.0705 163.444 96.0705 164.66V165.236C96.0705 166.388 96.2785 167.492 96.6945 168.548C97.1425 169.604 97.8305 170.644 98.7585 171.668C99.6865 172.692 101.063 173.508 102.887 174.116C104.711 174.724 106.855 175.028 109.319 175.028C116.743 175.028 121.079 172.916 122.327 168.692H134.183V169.22C134.183 170.084 134.055 170.98 133.799 171.908C133.543 172.804 133.111 173.828 132.503 174.98C131.927 176.132 131.031 177.204 129.815 178.196C128.631 179.188 127.207 180.116 125.543 180.98C123.879 181.812 121.719 182.484 119.063 182.996C116.439 183.476 113.495 183.716 110.231 183.716ZM165.045 183.092H151.125L132.549 147.38H145.221L158.373 173.636L170.709 147.38H182.325L165.045 183.092Z" fill="white"/>
</svg>
