<?xml version="1.0" standalone="no"?>
<!DOCTYPE svg PUBLIC "-//W3C//DTD SVG 20010904//EN"
 "http://www.w3.org/TR/2001/REC-SVG-20010904/DTD/svg10.dtd">
<svg version="1.0" xmlns="http://www.w3.org/2000/svg"
 width="360.000000pt" height="360.000000pt" viewBox="0 0 360.000000 360.000000"
 preserveAspectRatio="xMidYMid meet">

<g transform="translate(0.000000,360.000000) scale(0.100000,-0.100000)"
fill="#000000" stroke="none">
<path d="M0 1800 l0 -1800 1800 0 1800 0 0 1800 0 1800 -1800 0 -1800 0 0
-1800z m2786 1326 c61 -28 115 -82 146 -145 l23 -46 0 -930 0 -930 -23 -51
c-27 -60 -79 -113 -142 -146 -40 -20 -62 -23 -186 -26 l-142 -4 -4 -96 c-3
-80 -9 -106 -30 -147 -38 -72 -99 -125 -169 -145 -19 -6 -312 -10 -712 -10
-656 0 -679 0 -723 19 -98 44 -156 117 -174 219 -8 48 -10 317 -8 952 l3 885
23 51 c27 60 79 113 142 146 40 20 62 23 188 26 l142 4 0 84 c0 120 35 198
115 260 71 54 57 53 795 53 l685 1 51 -24z"/>
<path d="M1327 3037 c-20 -12 -50 -40 -65 -62 l-27 -40 -3 -915 c-3 -1017 -6
-968 64 -1029 18 -17 52 -35 73 -41 27 -7 255 -10 703 -8 l663 3 45 30 c86 58
80 -22 78 1036 l-3 936 -29 37 c-60 79 -27 76 -786 76 l-675 0 -38 -23z"/>
<path d="M853 2640 c-53 -23 -89 -56 -102 -93 -15 -40 -15 -1855 0 -1894 14
-38 46 -71 91 -94 35 -18 68 -19 709 -19 656 0 674 1 715 20 24 12 54 39 70
62 26 37 29 51 32 134 l4 93 -514 3 c-481 3 -515 4 -548 22 -64 34 -106 74
-136 128 l-29 53 -3 803 -2 802 -123 0 c-99 0 -130 -4 -164 -20z"/>
</g>
</svg>
