<svg width="201" height="201" viewBox="0 0 201 201" fill="none" xmlns="http://www.w3.org/2000/svg">
<rect x="0.902344" y="0.219482" width="200" height="200" rx="40" fill="black"/>
<path d="M101.757 177.853H99.7889C96.9409 177.853 94.3329 177.629 91.9649 177.181C89.5969 176.733 87.5969 176.157 85.9649 175.453C84.3649 174.717 82.9409 173.837 81.6929 172.813C80.4449 171.789 79.4689 170.749 78.7649 169.693C78.0609 168.637 77.4689 167.501 76.9889 166.285C76.5409 165.069 76.2369 163.965 76.0769 162.973C75.9489 161.981 75.8849 160.973 75.8849 159.949V158.557C75.8849 157.053 76.0289 155.613 76.3169 154.237C76.6049 152.829 77.2449 151.277 78.2369 149.581C79.2609 147.885 80.5889 146.429 82.2209 145.213C83.8849 143.997 86.2209 142.973 89.2289 142.141C92.2689 141.309 95.7889 140.893 99.7889 140.893H101.757C105.053 140.893 108.029 141.149 110.685 141.661C113.341 142.141 115.501 142.797 117.165 143.629C118.829 144.461 120.253 145.373 121.437 146.365C122.621 147.325 123.501 148.365 124.077 149.485C124.653 150.605 125.053 151.597 125.277 152.461C125.533 153.325 125.661 154.157 125.661 154.957V155.485H113.805C113.677 155.101 113.549 154.765 113.421 154.477C113.293 154.157 112.925 153.661 112.317 152.989C111.741 152.317 111.021 151.757 110.157 151.309C109.325 150.861 108.077 150.461 106.413 150.109C104.781 149.725 102.893 149.533 100.749 149.533C98.1889 149.533 95.9969 149.805 94.1729 150.349C92.3809 150.861 91.0209 151.581 90.0929 152.509C89.1969 153.437 88.5569 154.413 88.1729 155.437C87.7889 156.461 87.5969 157.581 87.5969 158.797V159.373C87.5969 160.525 87.8049 161.629 88.2209 162.685C88.6689 163.741 89.3569 164.781 90.2849 165.805C91.2129 166.829 92.5889 167.645 94.4129 168.253C96.2369 168.861 98.3809 169.165 100.845 169.165C108.269 169.165 112.605 167.053 113.853 162.829H125.709V163.357C125.709 164.221 125.581 165.117 125.325 166.045C125.069 166.941 124.637 167.965 124.029 169.117C123.453 170.269 122.557 171.341 121.341 172.333C120.157 173.325 118.733 174.253 117.069 175.117C115.405 175.949 113.245 176.621 110.589 177.133C107.965 177.613 105.021 177.853 101.757 177.853ZM153.741 177.853H151.773C148.925 177.853 146.317 177.629 143.949 177.181C141.581 176.733 139.581 176.157 137.949 175.453C136.349 174.717 134.925 173.837 133.677 172.813C132.429 171.789 131.453 170.749 130.749 169.693C130.045 168.637 129.453 167.501 128.973 166.285C128.525 165.069 128.221 163.965 128.061 162.973C127.933 161.981 127.869 160.973 127.869 159.949V158.557C127.869 157.053 128.013 155.613 128.301 154.237C128.589 152.829 129.229 151.277 130.221 149.581C131.245 147.885 132.573 146.429 134.205 145.213C135.869 143.997 138.205 142.973 141.213 142.141C144.253 141.309 147.773 140.893 151.773 140.893H153.741C157.037 140.893 160.013 141.149 162.669 141.661C165.325 142.141 167.485 142.797 169.149 143.629C170.813 144.461 172.237 145.373 173.421 146.365C174.605 147.325 175.485 148.365 176.061 149.485C176.637 150.605 177.037 151.597 177.261 152.461C177.517 153.325 177.645 154.157 177.645 154.957V155.485H165.789C165.661 155.101 165.533 154.765 165.405 154.477C165.277 154.157 164.909 153.661 164.301 152.989C163.725 152.317 163.005 151.757 162.141 151.309C161.309 150.861 160.061 150.461 158.397 150.109C156.765 149.725 154.877 149.533 152.733 149.533C150.173 149.533 147.981 149.805 146.157 150.349C144.365 150.861 143.005 151.581 142.077 152.509C141.181 153.437 140.541 154.413 140.157 155.437C139.773 156.461 139.581 157.581 139.581 158.797V159.373C139.581 160.525 139.789 161.629 140.205 162.685C140.653 163.741 141.341 164.781 142.269 165.805C143.197 166.829 144.573 167.645 146.397 168.253C148.221 168.861 150.365 169.165 152.829 169.165C160.253 169.165 164.589 167.053 165.837 162.829H177.693V163.357C177.693 164.221 177.565 165.117 177.309 166.045C177.053 166.941 176.621 167.965 176.013 169.117C175.437 170.269 174.541 171.341 173.325 172.333C172.141 173.325 170.717 174.253 169.053 175.117C167.389 175.949 165.229 176.621 162.573 177.133C159.949 177.613 157.005 177.853 153.741 177.853Z" fill="white"/>
</svg>
